<svg width="120" height="80" viewBox="0 0 120 80" fill="none" xmlns="http://www.w3.org/2000/svg">
  <path d="M30 35 L25 45 L25 60 L30 65 L90 65 L95 60 L95 45 L90 35 Z" fill="currentColor" opacity="0.3"/>
  <path d="M40 30 L35 35 L30 35 L25 45 L25 60 L30 65 L40 70 L80 70 L90 65 L95 60 L95 45 L90 35 L85 35 L80 30 Z" stroke="currentColor" stroke-width="2" fill="none"/>
  <circle cx="35" cy="55" r="8" stroke="currentColor" stroke-width="2" fill="none"/>
  <circle cx="85" cy="55" r="8" stroke="currentColor" stroke-width="2" fill="none"/>
  <rect x="50" y="42" width="8" height="8" rx="1" fill="currentColor" opacity="0.5"/>
  <rect x="62" y="42" width="8" height="8" rx="1" fill="currentColor" opacity="0.5"/>
  <rect x="45" y="52" width="30" height="8" rx="2" stroke="currentColor" stroke-width="1.5" fill="none"/>
  <path d="M40 65 L45 70 M80 65 L75 70" stroke="currentColor" stroke-width="2"/>
</svg>
